<svg id="Capa_1" enable-background="new 0 0 508.947 508.947" height="512" viewBox="0 0 508.947 508.947" width="512" xmlns="http://www.w3.org/2000/svg"><g><path fill="#4A99C4" d="m39.809 403.302 83.085 49.851 46.573-46.573 44.943-26.966 15.641 15.641 84.747-48.189-15.155-15.155 209.304-231.93-99.35-99.349-231.93 209.304-15.155-15.155-48.189 84.747 15.641 15.641-26.966 44.943zm78.434 12.075-30.052-18.031 26.72-26.72 24.042 24.042zm116.854-57.502-83.393-83.394 17.43-30.653 96.617 96.617zm173.441-315.877 59.043 59.042-189.178 209.63-79.495-79.495zm-215.994 315.75-30.052 18.031-28.692-28.691 18.031-30.052z"/><path fill="#4A99C4" d="m0 478.315h432v30h-432z"/><path fill="#4A99C4" d="m261.037 163.841h139.404v30h-139.404z" transform="matrix(.707 -.707 .707 .707 -29.588 286.249)"/></g></svg>